<svg width="256" height="256" viewBox="0 0 256 256" fill="none" xmlns="http://www.w3.org/2000/svg">
<path d="M144.971 16.9756C135.598 7.60302 120.402 7.60302 111.029 16.9756L45.9756 82.0294C37.0758 90.9293 36.6269 105.08 44.6289 114.509L106.044 53.0946C118.17 40.9684 137.83 40.9684 149.956 53.0946L211.371 114.509C219.373 105.08 218.924 90.9293 210.024 82.0294L144.971 16.9756Z" fill="#FFCE6D"/>
<path d="M110.965 77.0562C120.373 67.6479 135.627 67.6479 145.035 77.0562L210.944 142.965C220.352 152.373 220.352 167.627 210.944 177.035L145.035 242.944C135.627 252.352 120.373 252.352 110.965 242.944L45.0562 177.035C35.6479 167.627 35.6479 152.373 45.0562 142.965L110.965 77.0562Z" fill="#F26C56"/>
</svg>
